<mxfile host="app.diagrams.net" modified="2023-07-26T02:16:35.068Z" agent="Mozilla/5.0 (Windows NT 10.0; Win64; x64) AppleWebKit/537.36 (KHTML, like Gecko) Chrome/114.0.0.0 Safari/537.36" version="21.6.5" etag="uwXrrLr29N91-xtPHCS0" type="github">
  <diagram name="第 1 页" id="xNHH2wljVQ7qiZz2t9Qq">
    <mxGraphModel>
      <root>
        <mxCell id="0" />
        <mxCell id="1" parent="0" />
      </root>
    </mxGraphModel>
  </diagram>
</mxfile>
